<?xml version="1.0" encoding="utf-8"?>
<!-- Generator: Adobe Illustrator 27.3.1, SVG Export Plug-In . SVG Version: 6.00 Build 0)  -->
<svg version="1.1" id="Layer_1" xmlns="http://www.w3.org/2000/svg" xmlns:xlink="http://www.w3.org/1999/xlink" x="0px" y="0px"
	 viewBox="0 0 47.8 46.9" style="enable-background:new 0 0 47.8 46.9;" xml:space="preserve">
<style type="text/css">
	.st0{fill:#253A7C;}
	.st1{fill-rule:evenodd;clip-rule:evenodd;fill:#253A7C;}
	.st2{fill:#FFFFFF;}
	.st3{fill-rule:evenodd;clip-rule:evenodd;fill:#FFFFFF;}
	.st4{fill-rule:evenodd;clip-rule:evenodd;fill:#3464AE;}
	.st5{fill-rule:evenodd;clip-rule:evenodd;fill:#C96828;}
	.st6{fill:none;stroke:#253A7C;stroke-width:0.5987;stroke-miterlimit:2.613;}
	.st7{fill:none;stroke:#FFFFFF;stroke-width:0.1293;stroke-miterlimit:2.613;}
	.st8{fill:none;}
</style>
<g>
	<g>
		<path class="st0" d="M78.2-75.2v13.8h-4.6v-13.8h-6.9v-4.6h18.4v4.6H78.2z"/>
		<path class="st0" d="M105.9-74l-4.6,0.6V-74c0-0.8-0.4-1.2-1.2-1.2h-6.9c-0.8,0-1.2,0.4-1.2,1.2c0,0.8,0.4,1.2,1.2,1.2h6.9
			c3.8,0,5.8,1.9,5.8,5.8c0,3.8-1.9,5.8-5.8,5.8h-6.9c-3.8,0-5.8-1.9-5.8-5.8l4.6-0.6v0.6c0,0.8,0.4,1.2,1.2,1.2h6.9
			c0.8,0,1.2-0.4,1.2-1.2c0-0.8-0.4-1.2-1.2-1.2h-6.9c-3.8,0-5.8-1.9-5.8-5.8c0-3.8,1.9-5.8,5.8-5.8h6.9
			C104-79.8,105.9-77.9,105.9-74z"/>
		<path class="st0" d="M126.6-74l-4.6,0.6V-74c0-0.8-0.4-1.2-1.2-1.2h-6.9c-0.8,0-1.2,0.4-1.2,1.2c0,0.8,0.4,1.2,1.2,1.2h6.9
			c3.8,0,5.8,1.9,5.8,5.8c0,3.8-1.9,5.8-5.8,5.8h-6.9c-3.8,0-5.8-1.9-5.8-5.8l4.6-0.6v0.6c0,0.8,0.4,1.2,1.2,1.2h6.9
			c0.8,0,1.2-0.4,1.2-1.2c0-0.8-0.4-1.2-1.2-1.2h-6.9c-3.8,0-5.8-1.9-5.8-5.8c0-3.8,1.9-5.8,5.8-5.8h6.9
			C124.7-79.8,126.6-77.9,126.6-74z"/>
		<path class="st0" d="M128.9-79.8h12.7c3.8,0,5.8,1.9,5.8,5.8c0,3.7-1.8,5.6-5.3,5.7l6.9,6.9h-6.5l-6.9-6.9h-2v6.9h-4.6V-79.8z
			 M133.5-75.2v2.3h8.1c0.8,0,1.2-0.4,1.2-1.2c0-0.8-0.4-1.2-1.2-1.2H133.5z"/>
	</g>
	<g>
		<path class="st0" d="M78.4-52.3v0.7l-2.9,0.7v-1.5c0-0.5-0.2-0.7-0.7-0.7h-4.4c-0.5,0-0.7,0.2-0.7,0.7v4.4c0,0.5,0.2,0.7,0.7,0.7
			h4.4c0.5,0,0.7-0.2,0.7-0.7v-1.5l2.9,0.7v0.7c0,2.4-1.2,3.7-3.7,3.7h-4.4c-2.4,0-3.7-1.2-3.7-3.7v-4.4c0-2.4,1.2-3.7,3.7-3.7h4.4
			C77.2-55.9,78.4-54.7,78.4-52.3z"/>
		<path class="st0" d="M87.9-55.9c2.4,0,3.7,1.2,3.7,3.7v4.4c0,2.4-1.2,3.7-3.7,3.7h-4.4c-2.4,0-3.7-1.2-3.7-3.7v-4.4
			c0-2.4,1.2-3.7,3.7-3.7H87.9z M88.7-52.3c0-0.5-0.2-0.7-0.7-0.7h-4.4c-0.5,0-0.7,0.2-0.7,0.7v4.4c0,0.5,0.2,0.7,0.7,0.7h4.4
			c0.5,0,0.7-0.2,0.7-0.7V-52.3z"/>
		<path class="st0" d="M101.9-47.9v-8.1h2.9v8.1c0,2.4-1.2,3.7-3.7,3.7h-4.4c-2.4,0-3.7-1.2-3.7-3.7v-8.1H96v8.1
			c0,0.5,0.2,0.7,0.7,0.7h4.4C101.6-47.1,101.9-47.4,101.9-47.9z"/>
		<path class="st0" d="M109.2-50.9v6.7h-2.9v-11.7h2.1l6.7,6.7v-6.7h2.9v11.7h-2.1L109.2-50.9z"/>
		<path class="st0" d="M131.1-52.3v0.7l-2.9,0.7v-1.5c0-0.5-0.2-0.7-0.7-0.7h-4.4c-0.5,0-0.7,0.2-0.7,0.7v4.4c0,0.5,0.2,0.7,0.7,0.7
			h4.4c0.5,0,0.7-0.2,0.7-0.7v-1.5l2.9,0.7v0.7c0,2.4-1.2,3.7-3.7,3.7h-4.4c-2.4,0-3.7-1.2-3.7-3.7v-4.4c0-2.4,1.2-3.7,3.7-3.7h4.4
			C129.9-55.9,131.1-54.7,131.1-52.3z"/>
		<path class="st0" d="M135.5-44.2h-2.9v-11.7h2.9V-44.2z"/>
		<path class="st0" d="M137-55.9h2.9v8.8h8.8v2.9H137V-55.9z"/>
	</g>
</g>
<g>
	<path class="st1" d="M23.9,6.6c9.5,0,17.1,7.5,17.1,16.8c0,9.3-7.7,16.8-17.1,16.8S6.8,32.7,6.8,23.4C6.8,14.2,14.4,6.6,23.9,6.6
		 M23.9,0.2c13.1,0,23.7,10.4,23.7,23.2S37,46.7,23.9,46.7S0.2,36.3,0.2,23.4S10.8,0.2,23.9,0.2"/>
	<path class="st2" d="M45.8,21.6l0.1,0.3l-2.2,0c-0.2,0-0.4,0.1-0.4,0.2c-0.1,0-0.2-0.1-0.2-0.3c0-0.2,0.1-0.2,0.4-0.2L45.8,21.6z
		 M43.1,20.9l1.5-0.1l0-0.2l0.4,0l0,0.5l-1.9,0.1L43.1,20.9z M45.8,20.9c0,0.1,0,0.1-0.1,0.1c0,0-0.1,0.1-0.2,0.1
		c-0.1,0-0.1,0-0.2,0c-0.1,0-0.1-0.1-0.1-0.1c0-0.1,0-0.1,0.1-0.1c0,0,0.1-0.1,0.2-0.1c0.1,0,0.1,0,0.2,0
		C45.7,20.8,45.8,20.9,45.8,20.9 M44.8,20.4l-0.3-0.1c0.1-0.1,0.1-0.2,0.1-0.3c0-0.1-0.1-0.2-0.2-0.3c-0.1-0.1-0.3-0.1-0.5-0.1
		c-0.4,0-0.6,0.2-0.5,0.5c0,0.1,0.1,0.2,0.2,0.3l-0.3,0.2c-0.1-0.1-0.2-0.2-0.2-0.2c0-0.1-0.1-0.2-0.1-0.3c0-0.2,0-0.4,0.2-0.5
		c0.2-0.1,0.4-0.2,0.7-0.3c0.3,0,0.6,0,0.8,0.1c0.2,0.1,0.3,0.3,0.3,0.5C45,20.1,44.9,20.2,44.8,20.4 M42.8,18.7l1.1-0.2
		c0.2,0,0.3-0.1,0.3-0.1c0.1-0.1,0.1-0.1,0.1-0.2c0,0,0-0.1-0.1-0.1c0,0-0.1-0.1-0.2-0.1l-1.4,0.3l-0.1-0.3l1.9-0.4l0.1,0.2
		l-0.2,0.1c0.2,0.1,0.3,0.2,0.3,0.4c0,0.2,0,0.3-0.1,0.4c-0.1,0.1-0.3,0.2-0.5,0.3L42.9,19L42.8,18.7z M42.4,17.1l0.2,0
		c-0.1,0-0.1-0.1-0.2-0.1c-0.1-0.1-0.1-0.1-0.1-0.2c-0.1-0.3,0.1-0.5,0.5-0.7l1.2-0.4L44,16l-1.1,0.4c-0.2,0.1-0.3,0.2-0.3,0.3
		c0,0.1,0.1,0.1,0.1,0.2c0.1,0,0.1,0.1,0.2,0.1l1.3-0.4l0.1,0.3l-1.8,0.6L42.4,17.1z M42.4,14.7C42,14.9,41.9,15,42,15.2
		c0,0.1,0.1,0.1,0.3,0.2c0.1,0,0.3,0,0.5-0.1c0.4-0.2,0.5-0.3,0.4-0.5c0-0.1-0.1-0.2-0.3-0.2C42.7,14.6,42.6,14.6,42.4,14.7
		 M42.2,14.4c0.3-0.1,0.5-0.1,0.7-0.1c0.2,0,0.4,0.2,0.5,0.4c0.1,0.2,0.1,0.4,0,0.6c-0.1,0.2-0.3,0.3-0.6,0.4
		c-0.3,0.1-0.5,0.2-0.7,0.1c-0.2,0-0.4-0.2-0.5-0.4c-0.1-0.2-0.1-0.4,0-0.6C41.8,14.6,42,14.5,42.2,14.4 M43.5,13.4L43,13.4
		c0-0.1,0-0.2-0.1-0.4c-0.1-0.1-0.2-0.2-0.5-0.2c-0.2,0-0.4,0.1-0.7,0.2c-0.2,0.1-0.4,0.3-0.5,0.4c-0.1,0.2-0.1,0.3,0,0.5
		c0.1,0.2,0.3,0.2,0.5,0.3l-0.2,0.3c-0.3,0-0.5-0.2-0.6-0.4c-0.1-0.2-0.2-0.5,0-0.7c0.1-0.2,0.4-0.5,0.7-0.7c0.3-0.2,0.7-0.3,1-0.2
		c0.3,0,0.5,0.2,0.7,0.4C43.4,13,43.5,13.2,43.5,13.4 M39.7,12.1l0.9-0.7c0.1-0.1,0.2-0.1,0.2-0.2c0-0.1,0-0.2-0.1-0.2
		c0,0-0.1-0.1-0.2-0.1c-0.1,0-0.1,0-0.2,0l-1.1,0.8l-0.2-0.3l2.1-1.5l0.3,0.2l-0.8,0.5c0.1,0,0.3,0.1,0.4,0.2
		c0.1,0.1,0.2,0.3,0.1,0.4c0,0.2-0.2,0.3-0.4,0.4l-0.9,0.7L39.7,12.1z M40.2,10l-0.4,0.1c0-0.1,0-0.2-0.1-0.3
		c-0.1-0.1-0.2-0.1-0.3-0.1c-0.1,0-0.3,0.1-0.4,0.2c-0.3,0.3-0.3,0.5-0.1,0.7c0.1,0.1,0.2,0.1,0.4,0.1L39,11c-0.1,0-0.2-0.1-0.3-0.1
		c-0.1,0-0.1-0.1-0.2-0.2c-0.2-0.2-0.2-0.3-0.2-0.5c0-0.2,0.2-0.4,0.4-0.6c0.2-0.2,0.5-0.3,0.7-0.3c0.2,0,0.4,0.1,0.6,0.2
		C40.1,9.7,40.2,9.8,40.2,10 M38.8,9c0-0.1,0-0.1-0.1-0.2c-0.1-0.1-0.1-0.1-0.3,0c-0.1,0-0.2,0.1-0.3,0.2l-0.8,0.7l-0.3-0.2l1.3-1.3
		l0.3,0.2l-0.1,0.1c0.2,0,0.3,0,0.4,0.1c0.1,0.1,0.1,0.2,0.2,0.2L38.8,9z M37.2,8.4C37.1,8.3,37.1,8.3,37.2,8.4
		c-0.3-0.3-0.5-0.3-0.6-0.1c-0.1,0.1-0.1,0.2,0,0.3c0.2,0.1,0.3,0.1,0.5-0.1L37.2,8.4z M36.7,8.9c-0.1,0-0.1,0-0.2,0
		c-0.1,0-0.2-0.1-0.2-0.1c-0.1-0.1-0.2-0.2-0.2-0.3c0-0.1,0-0.3,0.2-0.4c0.1-0.2,0.3-0.2,0.5-0.3c0.2,0,0.4,0.1,0.6,0.2
		c0,0,0.1,0.1,0.1,0.1c0.1-0.2,0.1-0.3-0.1-0.4c-0.1-0.1-0.2-0.1-0.3-0.1l0.2-0.3c0.1,0,0.3,0.1,0.4,0.2c0.2,0.1,0.3,0.3,0.3,0.4
		c0,0.2-0.1,0.4-0.4,0.6l-0.3,0.3C37.1,9,37,9.1,37,9.2c-0.1,0-0.1,0-0.2,0c0,0-0.1,0-0.1-0.1c0,0-0.1-0.1-0.1-0.1
		C36.7,9,36.7,8.9,36.7,8.9 M35.4,6.9l0.6,0.4C36.2,7,36.2,6.8,36,6.7C35.8,6.6,35.6,6.7,35.4,6.9 M36.2,7.7l-0.9-0.6
		c-0.1,0.1-0.1,0.2-0.1,0.3c0,0.1,0.1,0.2,0.2,0.3c0.1,0.1,0.3,0.1,0.4,0.1l-0.1,0.3c-0.2,0-0.4,0-0.6-0.1c-0.2-0.1-0.3-0.3-0.3-0.5
		c0-0.2,0.1-0.4,0.2-0.7c0.2-0.2,0.4-0.4,0.6-0.5c0.2-0.1,0.4,0,0.6,0.1c0.2,0.1,0.3,0.3,0.3,0.5c0,0.2,0,0.4-0.2,0.6
		C36.3,7.5,36.2,7.6,36.2,7.7 M33.4,6.9l0.3-0.2c0,0.1,0.1,0.2,0.2,0.3c0.1,0.1,0.2,0,0.3-0.1c0-0.1,0-0.1,0-0.2
		c0-0.1-0.1-0.1-0.1-0.2C34,6.2,34,6,34.1,5.8c0.1-0.1,0.2-0.2,0.3-0.2c0.1,0,0.3,0,0.4,0.1C35,5.7,35.1,5.8,35.2,6l-0.3,0.2
		c0-0.1-0.1-0.2-0.2-0.3c-0.1-0.1-0.2,0-0.3,0.1c0,0,0,0.1,0,0.1c0,0.1,0.1,0.1,0.2,0.2c0.1,0.1,0.1,0.2,0.1,0.3
		c0,0.1,0,0.2-0.1,0.3c-0.1,0.1-0.2,0.2-0.4,0.3c-0.1,0-0.3,0-0.5-0.1c-0.1,0-0.2-0.1-0.2-0.1C33.5,7,33.5,7,33.4,6.9 M32.7,5.5
		l0.7,0.3c0.1-0.2,0-0.4-0.2-0.5C33,5.2,32.8,5.3,32.7,5.5 M33.5,6.2l-1-0.4c-0.1,0.1-0.1,0.2,0,0.3c0,0.1,0.1,0.2,0.2,0.2
		c0.1,0.1,0.3,0.1,0.4,0l0,0.3c-0.2,0.1-0.4,0-0.6-0.1c-0.2-0.1-0.3-0.2-0.4-0.4c0-0.2,0-0.4,0.1-0.7c0.1-0.3,0.3-0.4,0.5-0.5
		c0.2-0.1,0.4-0.1,0.6,0c0.2,0.1,0.3,0.2,0.4,0.4c0.1,0.2,0,0.4-0.1,0.6C33.6,6.1,33.6,6.1,33.5,6.2 M31.3,3.9l-0.2,0.6
		c0.1,0,0.1,0,0.1,0.1c0.1,0,0.3,0.1,0.4,0c0.1,0,0.2-0.1,0.2-0.2c0-0.1,0-0.2,0-0.3c-0.1-0.1-0.2-0.1-0.3-0.2
		C31.4,3.9,31.4,3.9,31.3,3.9 M31.4,6.1L31.2,5c-0.1,0-0.1,0-0.2-0.1l-0.4,1l-0.4-0.1l0.9-2.3c0,0,0.1,0,0.2,0.1
		c0.1,0,0.2,0.1,0.3,0.1c0.5,0.2,0.7,0.5,0.5,0.9c-0.1,0.1-0.1,0.2-0.2,0.3C31.8,4.9,31.7,5,31.6,5l0.2,1.2L31.4,6.1z M29.2,3l0.4,0
		L29,4.9c-0.1,0.2,0,0.3,0.1,0.4c-0.1,0.1-0.2,0.1-0.3,0.1c-0.2,0-0.2-0.2-0.1-0.4L29.2,3z M28.2,2.8l0.4,0l-0.4,1.9
		c0,0.2,0,0.4,0.1,0.4c-0.1,0.1-0.2,0.2-0.3,0.1c-0.2,0-0.2-0.2-0.2-0.4L28.2,2.8z M26.8,5L27,3.6l-0.2,0l0-0.3l0.6,0.1l-0.3,1.8
		L26.8,5z M27.4,2.6c0.1,0,0.1,0,0.1,0.1c0,0.1,0,0.1,0,0.2c0,0.1,0,0.1-0.1,0.2c0,0-0.1,0.1-0.2,0.1c-0.1,0-0.1,0-0.1-0.1
		c0-0.1,0-0.1,0-0.2c0-0.1,0-0.1,0.1-0.2C27.3,2.6,27.3,2.6,27.4,2.6 M26.1,5l-0.4-0.8l-0.2,0.2l0,0.6l-0.4,0l0.1-2.4l0.4-0.1
		l-0.1,1.4l0.5-0.7l0.4,0l-0.6,0.7L26.5,5L26.1,5z M23.5,4.8l0.1-0.4c0.2,0.1,0.3,0.2,0.4,0.2c0.2,0,0.3-0.1,0.3-0.3
		c0-0.1,0-0.2-0.1-0.2C24.3,4,24.2,3.9,24,3.8c-0.2-0.1-0.3-0.2-0.3-0.2c-0.1-0.1-0.1-0.1-0.1-0.2c0-0.1,0-0.2-0.1-0.3
		c0-0.2,0.1-0.3,0.2-0.5c0.1-0.1,0.3-0.2,0.5-0.2c0.2,0,0.4,0,0.5,0.1L24.5,3c-0.1-0.1-0.3-0.2-0.4-0.2c-0.1,0-0.2,0-0.2,0.1
		c0,0.1-0.1,0.1-0.1,0.2c0,0.1,0.1,0.3,0.4,0.4c0.1,0.1,0.2,0.1,0.3,0.2c0.1,0.1,0.1,0.1,0.1,0.2c0,0.1,0.1,0.2,0.1,0.3
		c0,0.2-0.1,0.4-0.2,0.5C24.5,4.9,24.3,5,24,5C23.8,5,23.7,4.9,23.5,4.8 M21.7,3.7c-0.1-0.1-0.2-0.1-0.3-0.1c-0.1,0-0.2,0.1-0.3,0.2
		c-0.1,0.1-0.1,0.3,0,0.4c0.1,0.4,0.3,0.5,0.6,0.5c0,0,0.1,0,0.1-0.1c0,0,0.1-0.1,0.1-0.1L21.7,3.7z M22,5.1l0-0.1
		c0,0-0.1,0.1-0.1,0.1c-0.1,0-0.1,0.1-0.2,0.1c-0.2,0-0.4,0-0.5-0.1c-0.2-0.1-0.3-0.3-0.3-0.6c-0.1-0.3,0-0.5,0.1-0.7
		c0.1-0.2,0.3-0.3,0.5-0.3c0.1,0,0.2,0,0.3,0l-0.1-0.7l0.3-0.2L22.3,5L22,5.1z M20.2,5.4l-0.3-1c0-0.1-0.1-0.2-0.2-0.3
		C19.7,4,19.6,4,19.5,4c-0.1,0-0.1,0-0.2,0.1c0,0-0.1,0.1-0.1,0.2l0.4,1.2l-0.4,0.1l-0.5-1.7L19,3.8L19.1,4c0.1-0.2,0.2-0.3,0.4-0.3
		c0.2,0,0.3,0,0.5,0.1c0.1,0.1,0.2,0.3,0.3,0.5l0.3,1L20.2,5.4z M18.3,5c-0.1,0-0.1,0-0.1,0c-0.3,0.1-0.4,0.2-0.3,0.4
		c0.1,0.2,0.2,0.2,0.3,0.2c0.2-0.1,0.3-0.2,0.2-0.4L18.3,5z M18.5,5.6c0,0.1,0,0.1-0.1,0.2c-0.1,0.1-0.1,0.1-0.2,0.1
		c-0.2,0-0.3,0-0.4,0c-0.1-0.1-0.2-0.2-0.3-0.3c-0.1-0.2-0.1-0.4,0-0.5c0.1-0.1,0.3-0.3,0.5-0.3c0,0,0.1,0,0.2,0
		c-0.1-0.2-0.2-0.3-0.4-0.2c-0.1,0-0.2,0.1-0.3,0.2l-0.2-0.3c0.1-0.1,0.2-0.2,0.4-0.2c0.2-0.1,0.4-0.1,0.6,0
		c0.1,0.1,0.3,0.3,0.4,0.6l0.1,0.4c0.1,0.2,0.2,0.4,0.3,0.4c0,0.1,0,0.1-0.1,0.1c0,0-0.1,0-0.1,0.1c0,0-0.1,0-0.2,0
		C18.6,5.7,18.5,5.7,18.5,5.6 M16.2,7c0,0.1,0,0.2-0.1,0.4c-0.1,0.1-0.2,0.2-0.3,0.3l-0.2-0.3c0.3-0.1,0.3-0.2,0.3-0.4
		c-0.1-0.1-0.2-0.2-0.3-0.4l-1.1-1l0.3-0.2l1,0.9L15.5,5l0.3-0.2L16.2,7z M14.1,6.2c-0.1,0-0.2,0-0.3,0c-0.1,0.1-0.2,0.2-0.2,0.3
		c0,0.1,0,0.3,0.1,0.4c0.2,0.3,0.4,0.4,0.7,0.2c0,0,0.1,0,0.1-0.1c0,0,0-0.1,0-0.1L14.1,6.2z M14.9,7.4L14.9,7.4
		c-0.1,0-0.1,0-0.1,0.1c0,0.1-0.1,0.1-0.2,0.1c-0.2,0.1-0.4,0.1-0.6,0c-0.2-0.1-0.4-0.2-0.5-0.5c-0.2-0.2-0.2-0.5-0.2-0.7
		c0-0.2,0.1-0.4,0.3-0.5c0.1-0.1,0.2-0.1,0.3-0.1l-0.4-0.6L13.8,5l1.4,2.2L14.9,7.4z M13.4,8.3l-0.1-0.1c0,0.1,0,0.1-0.1,0.2
		c0,0.1-0.1,0.1-0.2,0.2c-0.3,0.2-0.6,0.1-0.9-0.2l-0.7-0.9l0.3-0.2l0.7,0.9c0.1,0.2,0.3,0.2,0.4,0.1C13,8.2,13,8.1,13.1,8
		c0-0.1,0-0.1,0-0.2l-0.8-1l0.3-0.2l1.1,1.4L13.4,8.3z M10.7,8.5l-0.1,0.1l-0.2-0.2l0.1-0.1L10.2,8l0.2-0.3L10.7,8L11,7.7L11.3,8
		l-0.3,0.3l0.6,0.6C11.6,8.9,11.7,9,11.8,9c0.1,0,0.1,0,0.2-0.1c0.1-0.1,0.1-0.1,0.1-0.2L12.3,9c0,0.1-0.1,0.2-0.2,0.3
		c-0.1,0.1-0.2,0.1-0.4,0.1c-0.1,0-0.3-0.1-0.4-0.2L10.7,8.5z M10.5,10.5l-0.2-0.4c0.2,0,0.3-0.1,0.4-0.2c0.2-0.1,0.2-0.3,0-0.4
		c-0.1-0.1-0.1-0.1-0.2-0.1c-0.1,0-0.2,0-0.4,0c-0.2,0-0.3,0.1-0.4,0.1c-0.1,0-0.2,0-0.3-0.1c-0.1,0-0.2-0.1-0.2-0.2
		C9,9.2,9,9.1,9,8.9c0-0.2,0.1-0.3,0.2-0.4c0.2-0.2,0.3-0.2,0.5-0.2l0.2,0.3c-0.2,0-0.3,0.1-0.4,0.2C9.4,8.8,9.3,8.8,9.3,8.9
		c0,0.1,0,0.1,0.1,0.2c0.1,0.1,0.3,0.1,0.6,0c0.2,0,0.3-0.1,0.4-0.1c0.1,0,0.2,0,0.3,0.1c0.1,0,0.2,0.1,0.3,0.2
		c0.2,0.1,0.2,0.3,0.2,0.5c0,0.2-0.1,0.3-0.2,0.5C10.8,10.4,10.7,10.5,10.5,10.5 M7.5,10.3l0.1-0.3l1.7,1.2c0.2,0.1,0.3,0.2,0.4,0.1
		c0.1,0.1,0.1,0.2,0,0.3c-0.1,0.1-0.3,0.1-0.5-0.1L7.5,10.3z M8.3,11.9C8.3,12,8.2,12,8.3,11.9c-0.3,0.3-0.2,0.5,0,0.6
		c0.1,0.1,0.3,0.1,0.3-0.1c0.1-0.2,0.1-0.3-0.2-0.5L8.3,11.9z M8.9,12.2c0,0.1,0.1,0.1,0,0.2c0,0.1,0,0.2-0.1,0.2
		c-0.1,0.1-0.2,0.2-0.3,0.2c-0.1,0-0.3,0-0.4-0.1c-0.2-0.1-0.3-0.3-0.3-0.4c0-0.2,0-0.3,0.2-0.5c0,0,0.1-0.1,0.1-0.1
		c-0.2-0.1-0.3-0.1-0.5,0.1c-0.1,0.1-0.1,0.2-0.1,0.3L7.1,12c0-0.1,0.1-0.3,0.2-0.4c0.1-0.2,0.3-0.3,0.5-0.3c0.2,0,0.4,0.1,0.7,0.3
		l0.3,0.2C9,11.9,9.1,12,9.2,11.9c0,0.1,0.1,0.1,0,0.1c0,0,0,0.1-0.1,0.1c0,0-0.1,0.1-0.1,0.1C9,12.3,9,12.3,8.9,12.2 M6.9,12.5
		l0.2,0.3c-0.1,0-0.2,0.1-0.3,0.2c-0.1,0.1-0.1,0.2,0,0.3c0.1,0.1,0.2,0.2,0.4,0.3c0.4,0.2,0.6,0.1,0.8-0.1c0.1-0.1,0.1-0.2,0-0.4
		l0.4,0c0,0.1,0,0.2,0,0.3c0,0.1-0.1,0.2-0.1,0.2c-0.1,0.2-0.3,0.3-0.5,0.4c-0.2,0-0.5,0-0.7-0.1c-0.3-0.1-0.4-0.3-0.5-0.5
		c-0.1-0.2-0.1-0.4,0-0.6C6.6,12.6,6.7,12.5,6.9,12.5 M7.5,14.9l-1.4-0.6L6,14.5l-0.3-0.1l0.2-0.5l1.7,0.8L7.5,14.9z M5.2,13.7
		c0,0,0.1-0.1,0.1-0.1c0.1,0,0.1,0,0.2,0c0.1,0,0.1,0.1,0.1,0.1c0,0.1,0,0.1,0,0.2c0,0-0.1,0.1-0.1,0.1c-0.1,0-0.1,0-0.2,0
		c-0.1,0-0.1-0.1-0.1-0.1C5.2,13.8,5.2,13.7,5.2,13.7 M7.1,15.6l-1-0.4c-0.2-0.1-0.3-0.1-0.4-0.1c-0.1,0-0.2,0.1-0.2,0.2
		c0,0,0,0.1,0,0.2c0,0.1,0,0.1,0.1,0.2l1.3,0.5l-0.1,0.3L5,15.8l0.1-0.2l0.2,0c-0.1-0.1-0.1-0.3,0-0.4c0.1-0.2,0.2-0.3,0.4-0.3
		c0.2,0,0.4,0,0.6,0.1l1.1,0.4L7.1,15.6z M6.5,17.1l-1.1-0.3c-0.1,0-0.2,0-0.3,0C5,16.9,5,16.9,4.9,17c0,0.1,0,0.1,0,0.2
		C5,17.2,5,17.3,5,17.3l1.3,0.4L6.2,18l-2.5-0.7l0-0.4l0.9,0.3c-0.1-0.1-0.1-0.2,0-0.4c0.1-0.2,0.2-0.3,0.3-0.3s0.4-0.1,0.6,0
		l1.1,0.3L6.5,17.1z M4.4,18l0.3,0.2c-0.1,0.1-0.2,0.2-0.2,0.3c0,0.1,0,0.2,0.1,0.3C4.7,18.9,4.9,19,5.1,19c0.4,0.1,0.6,0,0.7-0.3
		c0-0.1,0-0.2-0.1-0.4L6,18.3c0.1,0.1,0.1,0.2,0.1,0.3c0,0.1,0,0.2,0,0.3c0,0.2-0.2,0.4-0.4,0.5c-0.2,0.1-0.4,0.1-0.7,0.1
		c-0.3-0.1-0.5-0.2-0.7-0.3c-0.2-0.2-0.2-0.4-0.2-0.6C4.2,18.2,4.3,18.1,4.4,18 M4.6,20.6l0.1-0.7c-0.3,0-0.4,0.1-0.5,0.3
		C4.2,20.4,4.4,20.5,4.6,20.6 M5.1,19.6l-0.1,1c0.2,0,0.3,0,0.4-0.1c0.1-0.1,0.1-0.2,0.2-0.3c0-0.2,0-0.3-0.1-0.4l0.4-0.1
		c0.1,0.1,0.2,0.3,0.1,0.5c0,0.2-0.1,0.4-0.3,0.5C5.4,21,5.1,21,4.8,21c-0.3,0-0.5-0.1-0.7-0.3c-0.2-0.2-0.2-0.3-0.2-0.5
		c0-0.2,0.1-0.4,0.3-0.5c0.2-0.1,0.4-0.2,0.7-0.1C4.9,19.6,5,19.6,5.1,19.6 M3.5,21.5l2.2,0.1l0,0.3l-2.2-0.1l0,0.6l-0.4,0l0.1-1.6
		l0.4,0L3.5,21.5z"/>
	<polygon class="st3" points="4.2,23.3 4.6,24.5 5.9,24.5 4.8,25.2 5.2,26.4 4.2,25.7 3.2,26.4 3.6,25.2 2.6,24.5 3.8,24.5 	"/>
	<polygon class="st3" points="44.2,23.3 44.6,24.5 45.8,24.5 44.8,25.2 45.2,26.4 44.2,25.7 43.2,26.4 43.5,25.2 42.5,24.5 
		43.8,24.5 	"/>
	<path class="st1" d="M17.6,21l1.5-0.2l0-0.7l-1.8,0.2c-0.8,0.2-1,0.8-1,1.5l0,5.3c0,0.9,0.2,1.5,1.3,1.7l11.4,1.8
		c1.1,0.2,1.7-0.2,1.7-1.4l0-9c0-1.1-0.4-1.6-1.5-1.5l-4.7,0.6v0.8l4.9-0.7c0.5-0.1,0.7,0.2,0.7,0.8l-0.1,9c0,0.9-0.5,0.8-1.2,0.7
		L17.7,28C17.2,27.9,17,27.6,17,27l0-5.1C17,21.4,17.1,21.1,17.6,21"/>
	<path class="st1" d="M21.5,28.6c-0.6-0.3-1.2-0.7-1.7-1.2l0.2,0.9L21.5,28.6z"/>
	<path class="st1" d="M28.7,29.8l-2.2-0.4c1.1-0.1,2.3-0.5,3.4-0.9l0,0.7L28.7,29.8z"/>
	<path class="st1" d="M24,28.4c-1.6-0.2-3-0.8-4.3-1.9l0-0.5c2,2.1,5.9,2.3,10.2,1.3l0,0.6C27.8,28.4,25.9,28.5,24,28.4"/>
	<path class="st1" d="M24.5,27c-2-0.1-3.4-0.9-4.6-1.9l0.1-0.3c1.4,1.1,3.6,1.9,7.5,1.6c0.8-0.1,1.6-0.4,2.4-0.7l-0.1,0.7
		C28.2,26.9,26.4,27.2,24.5,27"/>
	<path class="st1" d="M20.5,23.7l-0.2,0.4c2.5,1.5,5.6,2,9.6,0.8l0-0.6c-1.6,0.6-3.3,0.7-5.1,0.7C22.9,24.9,21.6,24.4,20.5,23.7"/>
	<path class="st1" d="M25.1,24.2c-2-0.1-3.2-0.5-4.2-1.1l0.3-0.3c1.7,0.9,4.7,1.3,8.6,0.4v0.4C28.2,24.1,26.6,24.3,25.1,24.2"/>
	<path class="st1" d="M29.6,22.1c-2.6,1-5.2,0.9-7.7-0.1l0.4-0.3c2.2,0.7,4.4,0.8,6.6,0L29.6,22.1z"/>
	<path class="st1" d="M27.8,21.2c-1.5-0.6-2.9-0.5-4.3-0.1C25,21.4,26.4,21.4,27.8,21.2"/>
	<rect x="19.6" y="20.4" class="st4" width="1.3" height="1.2"/>
	<rect x="21" y="19.2" class="st1" width="1.3" height="1.2"/>
	<rect x="22.8" y="18.6" class="st4" width="1.3" height="1.2"/>
	<rect x="21.5" y="17.3" class="st1" width="1" height="0.9"/>
	<path class="st5" d="M14.2,15c-1.1-0.1-1.7,0.4-2,1.4C13.1,16.6,13.8,16.3,14.2,15 M13.4,16.9c-1.1-0.3-1.7,0.2-2.1,1.1
		C12.1,18.3,12.8,18.1,13.4,16.9 M10.8,15.8c-0.7,1-0.9,2-0.5,3C11,18.3,11.3,17.5,10.8,15.8 M12,18.4c-1.2,0.1-1.7,0.8-1.8,1.8
		C11.2,20.3,11.9,19.8,12,18.4 M9.6,17.9c-0.5,1.1-0.5,2.1,0.2,3C10.3,20.3,10.4,19.4,9.6,17.9 M11.3,20.4c-1.1,0.4-1.4,1.2-1.3,2.2
		C10.9,22.4,11.5,21.8,11.3,20.4 M8.6,20c-0.2,1.2,0.1,2.2,1,2.8C10,22.1,9.8,21.2,8.6,20 M8.4,22c-0.1,1.2,0.2,2.2,1.1,2.8
		C9.8,24.1,9.6,23.2,8.4,22 M11.1,22.4c-1,0.7-1.5,1.6-1.3,2.7C10.5,24.8,11,24,11.1,22.4 M8.4,24.4c0.1,1.1,0.4,2.1,1.5,2.3
		C10.1,25.9,9.9,25.1,8.4,24.4 M11.1,24c-0.8,0.9-1.2,1.8-0.9,2.9C11,26.5,11.4,25.7,11.1,24 M8.8,26.8c0.1,1.1,1,2,1.8,1.6
		C10.7,27.5,9.9,26.7,8.8,26.8 M11.5,25.6c-0.7,1-0.8,2-0.3,3C11.8,28.1,12,27.2,11.5,25.6 M9.5,29c0.4,1,1.5,1.4,2.2,0.9
		C11.6,28.8,10.7,28.5,9.5,29 M11.9,27.5C11.7,29,12.1,30,12.6,30C13.1,28.9,12.6,28,11.9,27.5 M10.7,30.7c0.7,0.9,1.3,0.8,1.9,0
		C11.9,29.8,11.3,30.2,10.7,30.7 M12.2,14.2c-0.8,0.9-1.2,1.8-0.9,2.9C12.1,16.7,12.5,15.9,12.2,14.2"/>
	<path class="st5" d="M33.8,15c1.1-0.1,1.7,0.4,2,1.4C34.9,16.6,34.2,16.3,33.8,15 M34.6,16.9c1.1-0.3,1.7,0.2,2.1,1.1
		C36,18.3,35.2,18.1,34.6,16.9 M37.3,15.8c0.7,1,0.9,2,0.5,3C37.1,18.3,36.8,17.5,37.3,15.8 M36,18.4c1.2,0.1,1.7,0.8,1.8,1.8
		C36.9,20.3,36.2,19.8,36,18.4 M38.5,17.9c0.5,1.1,0.5,2.1-0.2,3C37.8,20.3,37.7,19.4,38.5,17.9 M36.8,20.4c1.1,0.4,1.4,1.2,1.3,2.2
		C37.1,22.4,36.6,21.8,36.8,20.4 M39.4,20c0.2,1.2-0.1,2.2-1,2.8C38.1,22.1,38.3,21.2,39.4,20 M39.7,22c0.1,1.2-0.2,2.2-1.1,2.8
		C38.3,24.1,38.4,23.2,39.7,22 M37,22.4c1,0.7,1.5,1.6,1.3,2.7C37.6,24.8,37.1,24,37,22.4 M39.7,24.4c-0.1,1.1-0.4,2.1-1.5,2.3
		C37.9,25.9,38.2,25.1,39.7,24.4 M36.9,24c0.8,0.9,1.2,1.8,0.9,2.9C37.1,26.5,36.7,25.7,36.9,24 M39.3,26.8c-0.1,1.1-1,2-1.8,1.6
		C37.4,27.5,38.2,26.7,39.3,26.8 M36.6,25.6c0.7,1,0.8,2,0.3,3C36.3,28.1,36,27.2,36.6,25.6 M38.5,29c-0.4,1-1.5,1.4-2.2,0.9
		C36.5,28.8,37.4,28.5,38.5,29 M36.2,27.5C36.4,29,36,30,35.5,30C35,28.9,35.5,28,36.2,27.5 M37.4,30.7c-0.7,0.9-1.3,0.8-1.9,0
		C36.1,29.8,36.8,30.2,37.4,30.7 M35.8,14.2c0.8,0.9,1.2,1.8,0.9,2.9C36,16.7,35.6,15.9,35.8,14.2"/>
	<path class="st0" d="M33.3,35.3l-1.5-1.6l0.4-0.4l1.2,1.2l0.7-0.7l0.3,0.4L33.3,35.3z M31.2,36.6l-1.1-1.9l0.5-0.3l1.1,1.9
		L31.2,36.6z M29.4,36.6L29.4,36.6c0.1,0.3,0.1,0.5,0.1,0.7c-0.1,0.2-0.2,0.3-0.5,0.4l-0.2,0.1c-0.3,0.1-0.5,0.1-0.7,0
		c-0.2-0.1-0.3-0.3-0.4-0.6l-0.2-0.4c-0.1-0.3-0.1-0.5-0.1-0.7c0.1-0.2,0.3-0.3,0.5-0.4l0.2-0.1c0.3-0.1,0.5-0.1,0.7-0.1
		c0.2,0.1,0.3,0.2,0.4,0.5l0,0l-0.6,0.2l0,0c0-0.1-0.1-0.2-0.1-0.2c-0.1,0-0.1,0-0.3,0c-0.1,0-0.2,0.1-0.2,0.2c0,0.1,0,0.2,0.1,0.4
		l0.1,0.3c0.1,0.2,0.1,0.3,0.2,0.3c0.1,0,0.1,0,0.3,0c0.1,0,0.2-0.1,0.2-0.1c0-0.1,0-0.1,0-0.2l0,0L29.4,36.6z M24,38.5l-0.2-2.2
		l0.9-0.1l0.9,1.5l-0.2-1.6l0.6-0.1l0.2,2.2l-0.9,0.1l-0.9-1.6l0.2,1.6L24,38.5z M20.6,36l0.6,0.1L21,37.3c0,0.2,0,0.3,0,0.3
		c0,0.1,0.1,0.1,0.3,0.1l0.1,0c0.1,0,0.2,0,0.3,0c0.1,0,0.1-0.2,0.1-0.3l0.2-1.3l0.6,0.1l-0.2,1.3c0,0.2-0.1,0.3-0.1,0.4
		c0,0.1-0.1,0.2-0.2,0.2c-0.1,0.1-0.2,0.1-0.3,0.1c-0.1,0-0.2,0-0.4,0l-0.3,0c-0.2,0-0.3-0.1-0.4-0.1c-0.1,0-0.2-0.1-0.2-0.2
		c0-0.1-0.1-0.2-0.1-0.3c0-0.1,0-0.2,0-0.4L20.6,36z M17.3,35.6c0.1-0.3,0.3-0.5,0.5-0.6c0.2-0.1,0.4,0,0.7,0.1l0.3,0.1
		c0.3,0.1,0.5,0.3,0.5,0.4c0.1,0.2,0,0.4-0.1,0.7l-0.2,0.4c-0.1,0.3-0.3,0.5-0.5,0.6c-0.2,0.1-0.4,0-0.7-0.1l-0.3-0.1
		c-0.3-0.1-0.5-0.3-0.5-0.4c-0.1-0.2,0-0.4,0.1-0.7L17.3,35.6z M17.8,35.9l-0.1,0.3c-0.1,0.2-0.1,0.3-0.1,0.3c0,0.1,0.1,0.1,0.2,0.2
		l0.1,0c0.1,0.1,0.2,0.1,0.3,0c0.1,0,0.1-0.1,0.2-0.3l0.1-0.3c0.1-0.2,0.1-0.3,0.1-0.3c0-0.1-0.1-0.1-0.2-0.2l-0.1,0
		c-0.1-0.1-0.2-0.1-0.3,0C18,35.6,17.9,35.7,17.8,35.9 M15.8,35.3L15.8,35.3c-0.2,0.3-0.4,0.4-0.6,0.4c-0.2,0-0.4,0-0.6-0.2
		l-0.2-0.1c-0.2-0.2-0.4-0.4-0.4-0.5c0-0.2,0.1-0.4,0.3-0.7l0.3-0.4c0.2-0.3,0.4-0.4,0.6-0.4c0.2,0,0.4,0,0.6,0.2l0.1,0.1
		c0.2,0.2,0.4,0.4,0.4,0.5c0,0.2,0,0.4-0.2,0.6l0,0l-0.5-0.4l0,0c0.1-0.1,0.1-0.1,0.1-0.2c0-0.1-0.1-0.1-0.2-0.2
		c-0.1-0.1-0.2-0.1-0.2-0.1c-0.1,0-0.2,0.1-0.3,0.2l-0.2,0.3c-0.1,0.1-0.2,0.3-0.2,0.3c0,0.1,0.1,0.1,0.2,0.2
		c0.1,0.1,0.2,0.1,0.2,0.1c0.1,0,0.1-0.1,0.2-0.1l0,0L15.8,35.3z"/>
	<path class="st0" d="M29.4,12.5l2.3-3.1l2.4,1.7c0.2,0.2,0.4,0.3,0.4,0.5c0,0.2,0,0.4-0.2,0.6l-0.5,0.7c-0.2,0.2-0.3,0.3-0.5,0.4
		c-0.2,0-0.4,0-0.6-0.2l-0.4-0.3l0.5,2.1l-0.9-0.7l-0.3-2l-0.6-0.4L30,13L29.4,12.5z M33.4,11.4l-1.5-1l-0.6,0.9l1.5,1
		c0.1,0.1,0.2,0.1,0.3,0.1c0.1,0,0.1-0.1,0.2-0.2l0.3-0.4c0.1-0.1,0.1-0.2,0.1-0.2C33.6,11.6,33.5,11.5,33.4,11.4 M27.7,8.6
		l-2.3-0.4L25.3,9l2.1,0.4c0.3,0.1,0.6,0.2,0.6,0.3c0.1,0.1,0.1,0.4,0,0.7L28.1,11c-0.1,0.3-0.2,0.6-0.3,0.7
		c-0.1,0.1-0.4,0.1-0.7,0.1l-2.1-0.4c-0.3-0.1-0.6-0.2-0.6-0.3c-0.1-0.1-0.1-0.4,0-0.7l0-0.1l0.7,0l-0.1,0.4l2.4,0.4l0.2-0.9
		l-2.1-0.4c-0.3-0.1-0.5-0.2-0.6-0.3c-0.1-0.1-0.1-0.4,0-0.7l0.1-0.4C24.8,8,24.9,7.8,25,7.7c0.1-0.1,0.4-0.1,0.7-0.1l2,0.4
		C28,8,28.2,8.1,28.3,8.2c0.1,0.1,0.1,0.4,0.1,0.7l0,0.1l-0.7,0.1L27.7,8.6z M21.2,8.3L19,8.8l0.2,0.8l2.1-0.5
		c0.3-0.1,0.6-0.1,0.7,0c0.1,0.1,0.3,0.3,0.3,0.7l0.1,0.5c0.1,0.3,0.1,0.6,0,0.7c-0.1,0.2-0.3,0.3-0.6,0.3l-2.1,0.5
		c-0.3,0.1-0.6,0.1-0.7,0c-0.1-0.1-0.3-0.3-0.3-0.7l0-0.1l0.7-0.3l0.1,0.4l2.4-0.5l-0.2-0.9l-2.1,0.5c-0.3,0.1-0.6,0.1-0.7,0
		c-0.1-0.1-0.3-0.3-0.3-0.7l-0.1-0.4c-0.1-0.3-0.1-0.6,0-0.7c0.1-0.2,0.3-0.3,0.6-0.3l1.9-0.4c0.3-0.1,0.6-0.1,0.7,0
		c0.2,0.1,0.3,0.3,0.3,0.6l0,0.1l-0.7,0.3L21.2,8.3z M15,10.8l1.9,2.6l-0.7,0.5l-1.9-2.6L13,12.2l-0.4-0.6l3.3-2.3l0.4,0.6L15,10.8z
		"/>
	<path class="st6" d="M29.4,12.5l2.3-3.1l2.4,1.7c0.2,0.2,0.4,0.3,0.4,0.5c0,0.2,0,0.4-0.2,0.6l-0.5,0.7c-0.2,0.2-0.3,0.3-0.5,0.4
		c-0.2,0-0.4,0-0.6-0.2l-0.4-0.3l0.5,2.1l-0.9-0.7l-0.3-2l-0.6-0.4L30,13L29.4,12.5z M33.4,11.4l-1.5-1l-0.6,0.9l1.5,1
		c0.1,0.1,0.2,0.1,0.3,0.1c0.1,0,0.1-0.1,0.2-0.2l0.3-0.4c0.1-0.1,0.1-0.2,0.1-0.2C33.6,11.6,33.5,11.5,33.4,11.4z M27.7,8.6
		l-2.3-0.4L25.3,9l2.1,0.4c0.3,0.1,0.6,0.2,0.6,0.3c0.1,0.1,0.1,0.4,0,0.7L28.1,11c-0.1,0.3-0.2,0.6-0.3,0.7
		c-0.1,0.1-0.4,0.1-0.7,0.1l-2.1-0.4c-0.3-0.1-0.6-0.2-0.6-0.3c-0.1-0.1-0.1-0.4,0-0.7l0-0.1l0.7,0l-0.1,0.4l2.4,0.4l0.2-0.9
		l-2.1-0.4c-0.3-0.1-0.5-0.2-0.6-0.3c-0.1-0.1-0.1-0.4,0-0.7l0.1-0.4C24.8,8,24.9,7.8,25,7.7c0.1-0.1,0.4-0.1,0.7-0.1l2,0.4
		C28,8,28.2,8.1,28.3,8.2c0.1,0.1,0.1,0.4,0.1,0.7l0,0.1l-0.7,0.1L27.7,8.6z M21.2,8.3L19,8.8l0.2,0.8l2.1-0.5
		c0.3-0.1,0.6-0.1,0.7,0c0.1,0.1,0.3,0.3,0.3,0.7l0.1,0.5c0.1,0.3,0.1,0.6,0,0.7c-0.1,0.2-0.3,0.3-0.6,0.3l-2.1,0.5
		c-0.3,0.1-0.6,0.1-0.7,0c-0.1-0.1-0.3-0.3-0.3-0.7l0-0.1l0.7-0.3l0.1,0.4l2.4-0.5l-0.2-0.9l-2.1,0.5c-0.3,0.1-0.6,0.1-0.7,0
		c-0.1-0.1-0.3-0.3-0.3-0.7l-0.1-0.4c-0.1-0.3-0.1-0.6,0-0.7c0.1-0.2,0.3-0.3,0.6-0.3l1.9-0.4c0.3-0.1,0.6-0.1,0.7,0
		c0.2,0.1,0.3,0.3,0.3,0.6l0,0.1l-0.7,0.3L21.2,8.3z M15,10.8l1.9,2.6l-0.7,0.5l-1.9-2.6L13,12.2l-0.4-0.6l3.3-2.3l0.4,0.6L15,10.8z
		"/>
	<path class="st0" d="M31.4,15.9c-2-1.9-4.7-3.1-7.7-3.1c-3,0-5.7,1.2-7.7,3.1c-2,1.9-3.2,4.6-3.2,7.5s1.2,5.6,3.2,7.5
		c2,1.9,4.7,3.1,7.7,3.1c3,0,5.7-1.2,7.7-3.1c2-1.9,3.2-4.6,3.2-7.5S33.4,17.8,31.4,15.9 M23.8,12.3c3.1,0,6,1.2,8,3.3
		c2.1,2,3.3,4.8,3.3,7.9c0,3.1-1.3,5.8-3.3,7.9c-2.1,2-4.9,3.3-8,3.3c-3.1,0-6-1.2-8-3.3c-2.1-2-3.3-4.8-3.3-7.9
		c0-3.1,1.3-5.8,3.3-7.9C17.8,13.5,20.6,12.3,23.8,12.3"/>
	<path class="st2" d="M42.7,30.5l0.4-1l0.3,0.1c0,0,0,0,0,0.1l-0.1,0.2c-0.1,0.3,0,0.6,0.3,0.7c0.3,0.1,0.8-0.1,0.9-0.5
		c0-0.1,0.1-0.2,0-0.3c0.1-0.1,0.2-0.1,0.3,0c0.1,0,0.2,0.1,0.2,0.3l0.2-0.1l0,0c0-0.1-0.1-0.3-0.3-0.3c-0.1,0-0.3,0-0.5,0.1
		c0-0.1-0.1-0.2-0.2-0.2c-0.1,0-0.1,0-0.2,0c-0.1,0-0.1,0.1-0.1,0.1c0,0.1,0,0.2,0.1,0.3c0.1,0,0.1,0,0.2,0c0,0.1,0,0.2,0,0.3
		c-0.1,0.2-0.3,0.3-0.5,0.3c-0.2-0.1-0.3-0.3-0.2-0.7l0.1-0.3l0,0l-0.5-0.2l0.1-0.4l0,0l-0.2,0l-0.6,1.6l0,0L42.7,30.5z M43.1,31.5
		l-0.9,0.2l0,0l0.3-0.5l0.5,0.2C43,31.4,43.1,31.4,43.1,31.5L43.1,31.5z M43.1,31.6c0,0.1,0,0.2,0,0.3c-0.1,0.2-0.2,0.2-0.5,0.1
		c-0.1-0.1-0.2-0.1-0.4-0.2l0,0L43.1,31.6z M41.9,32.2L42,32c0.1,0.1,0.3,0.1,0.4,0.2c0.2,0.1,0.4,0.1,0.5,0.1
		c0.2-0.1,0.3-0.2,0.4-0.3c0.1-0.1,0.1-0.2,0-0.3l0.6,0.3l0.1-0.2l0,0l-1.6-0.7l0.1-0.3l0,0l-0.2,0l-0.7,1.5l0,0L41.9,32.2z
		 M41.4,33.1l0.3-0.6c0.1,0,0.2,0.1,0.2,0.1c0.1,0.1,0.2,0.1,0.2,0.2c0,0.1-0.1,0.1-0.1,0.2c0,0.1-0.1,0.1,0,0.2c0,0,0,0.1,0.1,0.1
		c0.1,0,0.2,0,0.3,0c0.3,0,0.7-0.1,1-0.3l0,0l-0.1-0.2c-0.3,0.2-0.6,0.3-0.8,0.4c0-0.3-0.1-0.5-0.4-0.7c-0.1-0.1-0.2-0.1-0.3-0.1
		l0.2-0.4l0,0l-0.2,0l-0.7,1.1l0,0L41.4,33.1z M41,33.7l0.1-0.2l1.5,0.8l0.2-0.1l0,0l-1.5-0.8l0.2-0.3l0,0l-0.2,0l-0.1,0.3
		c-0.1,0-0.2,0-0.2-0.1c-0.2-0.1-0.2-0.3-0.1-0.5c0.1-0.2,0.4-0.4,0.8-0.4l0,0l0-0.1c-0.5,0-0.8,0.2-1,0.5c-0.1,0.2-0.1,0.5,0.2,0.6
		c0.1,0.1,0.2,0.1,0.3,0.1l-0.2,0.3l0,0L41,33.7z M40.8,34.1l0.5,0.3c0.1,0.1,0.1,0.1,0.2,0.2c0,0.1,0,0.2-0.1,0.3
		c-0.1,0.2-0.3,0.1-0.5,0c-0.1-0.1-0.3-0.2-0.4-0.3L40.8,34.1z M40.1,35.1l0.1-0.2c0.1,0.1,0.3,0.2,0.4,0.3c0.2,0.2,0.4,0.2,0.5,0.2
		c0.2,0,0.3-0.1,0.4-0.2c0.1-0.1,0.1-0.2,0.1-0.3l0.5,0.4l0.2-0.1l0,0l-1.4-1l0.2-0.3l0,0l-0.2,0l-1,1.4l0,0L40.1,35.1z M38.5,36.9
		l0.8-0.9l0.4,0.3c-0.1,0.1-0.3,0.3-0.4,0.4c-0.1,0.1-0.2,0.2-0.2,0.3c0,0.1,0,0.2,0,0.2c0.1,0.1,0.5,0.1,0.5,0c0,0,0-0.1,0-0.1
		c0,0,0-0.1-0.1-0.1L39.5,37c0-0.1,0.1-0.2,0.2-0.3c0.1-0.1,0.1-0.1,0.2-0.2l0.7,0.6l0.2-0.1l0,0l-1.3-1.1l0.2-0.3l0,0l-0.2,0
		l-1.1,1.3l0,0L38.5,36.9z M38.1,37.3l0.2-0.2l1.2,1.2l0.2-0.1l0,0L38.5,37l0.2-0.2l0,0l-0.2-0.1L38,37.2l0,0L38.1,37.3z M37.5,38.1
		L37.5,38.1c-0.3-0.2-0.4-0.3-0.6-0.1c-0.1,0.1-0.2,0.4,0,0.5c0.1,0.1,0.3,0.2,0.6,0.1c0,0.1,0,0.1,0.1,0.2c0.1,0.1,0.2,0.1,0.4,0.1
		c0.2,0,0.4-0.1,0.5-0.2c0.1-0.1,0.2-0.2,0.2-0.3l0.3,0.4l0.2-0.1l0,0L38,37.5l0.2-0.2l0,0L38,37.1l-0.6,0.6l0,0l0.2,0.1l0.2-0.2
		l0.5,0.5c0.1,0.1,0.1,0.2,0.1,0.3c0,0.2-0.1,0.3-0.2,0.3c-0.1,0.1-0.2,0.1-0.3,0c-0.1-0.1-0.1-0.3,0.1-0.6l0,0l-0.2,0
		c-0.1,0.2-0.2,0.3-0.2,0.3c-0.1,0.1-0.3,0.1-0.4,0c-0.1-0.1-0.1-0.2,0-0.4C37.2,38,37.3,38,37.5,38.1L37.5,38.1z M35.4,38.6l0,0.3
		l0.3,0l0-0.3L35.4,38.6z M36.1,39l0.4,0.6c-0.1,0.1-0.2,0.2-0.3,0.3C36.1,39.9,36,40,35.9,40c0-0.1-0.1-0.1-0.1-0.2
		c-0.1-0.1-0.2-0.2-0.3-0.3L36.1,39z M34.9,39.8l0.4-0.3c0.1,0.1,0.1,0.2,0.2,0.3c0.1,0.1,0.1,0.2,0.1,0.2c-0.1,0-0.1,0.1-0.1,0.1
		c-0.1,0.1-0.1,0.2,0,0.2c0,0.1,0.1,0.1,0.3,0.2c0.2,0.1,0.6,0.2,1,0.2l0,0l0-0.3c-0.3,0-0.6,0-0.8,0c0-0.1,0-0.2,0-0.3
		c0.2,0,0.4-0.1,0.5-0.2c0.1,0,0.1-0.1,0.2-0.2l0.4,0.6l0.2-0.1l0,0l-1-1.4l0.3-0.2l0,0l-0.2-0.1l-1.6,1.1v0L34.9,39.8z M34.7,42.2
		L34.7,42.2c0.5,0.2,0.8,0.3,1.1,0.1c0.1-0.1,0.3-0.3,0.2-0.5c0-0.1-0.1-0.1-0.2-0.2c-0.1-0.1-0.3-0.1-0.4,0
		c-0.1,0.1-0.2,0.1-0.2,0.3l0.2,0.1l0,0c0-0.1,0.1-0.2,0.2-0.2c0.1,0,0.1,0,0.2,0c0.1,0.1,0,0.3-0.2,0.3c-0.2,0.1-0.5,0.1-0.9-0.1
		L34.7,42.2z M33.4,40.7l1-0.6l0.3,0.4c-0.2,0.1-0.4,0.2-0.5,0.2c-0.1,0.1-0.2,0.1-0.3,0.2c-0.1,0.1-0.1,0.2,0,0.2
		c0.1,0.1,0.4,0.2,0.5,0.2c0,0,0.1-0.1,0.1-0.1c0,0,0-0.1-0.1-0.1l-0.1-0.1c0.1-0.1,0.1-0.1,0.3-0.2c0.1,0,0.2-0.1,0.2-0.1l0.5,0.8
		l0.2-0.1l0,0l-0.9-1.5l0.3-0.2l0,0l-0.2-0.1l-1.5,0.8l0,0L33.4,40.7z M31.7,41.7c0.1-0.2,0.2-0.3,0.3-0.3c0.1-0.1,0.2,0,0.3,0.1
		c0,0.1,0,0.2,0,0.3c-0.1,0.1-0.2,0.2-0.4,0.3l0,0l0.2,0.1c0.1-0.1,0.2-0.2,0.3-0.2c0.2-0.1,0.3,0,0.4,0.1c0.1,0.2,0,0.4-0.2,0.4
		c-0.2,0.1-0.5,0-0.9-0.3l-0.1,0.1l0,0c0.4,0.3,0.8,0.5,1.2,0.3c0.2-0.1,0.4-0.3,0.2-0.6c0-0.1-0.1-0.1-0.1-0.2l0,0
		c0.1,0,0.2,0,0.3,0c0.1,0,0.1-0.1,0.1-0.1l0.3,0.6l0.2,0l0,0l-0.7-1.5l0.3-0.1l0,0l-0.2-0.1L32.5,41l0,0l0.2,0.1l0.3-0.1l0.3,0.6
		c-0.1,0.1-0.1,0.2-0.2,0.2c-0.1,0-0.2,0.1-0.2,0c0,0-0.1,0-0.2,0c0-0.1,0-0.2,0-0.3c-0.1-0.1-0.1-0.2-0.3-0.3
		c-0.2-0.1-0.3-0.1-0.5,0c-0.1,0.1-0.2,0.2-0.3,0.3l0,0L31.7,41.7z M28.5,42.5l1.5-0.4l0.1,0.3c-0.2,0.1-0.4,0.2-0.4,0.3
		c-0.2-0.1-0.3-0.1-0.5-0.1c-0.3,0.1-0.4,0.3-0.3,0.6c0.1,0.3,0.4,0.6,0.9,0.7l0,0l0.1-0.3c-0.4-0.1-0.7-0.1-0.7-0.4
		c0-0.2,0-0.4,0.2-0.4c0.1,0,0.2,0,0.2,0c0,0.1-0.1,0.2-0.1,0.4l0.2,0.1l0,0c0-0.4,0.1-0.5,0.4-0.6l0.3,1.1l0.2,0l0,0L30.2,42
		l0.3-0.1l0,0l-0.1-0.1l-2,0.6l0,0L28.5,42.5z M27.1,42.7c0.1,0,0.3,0.1,0.3,0.2c0,0.1,0,0.2-0.1,0.3c-0.2,0-0.4-0.1-0.5-0.3
		C26.9,42.9,27,42.8,27.1,42.7 M26.3,42.9l0.3-0.1c0,0.1,0,0.1,0,0.1c0,0.2,0.3,0.4,0.6,0.5c0,0.1-0.1,0.1-0.1,0.1
		c-0.1,0-0.2-0.1-0.3,0c-0.1,0-0.2,0.1-0.2,0.1c0,0,0,0.1,0.1,0.1c0.1,0.1,0.2,0.1,0.2,0.1c0.1,0,0.2,0,0.2-0.1
		c0.2,0.2,0.4,0.4,0.7,0.5l0,0l0.1-0.3c-0.2-0.1-0.4-0.2-0.7-0.4c0.3-0.2,0.4-0.5,0.4-0.7c0-0.1-0.1-0.3-0.3-0.4l0.5-0.1l0.3,1.6
		l0.2,0l0,0l-0.3-1.7l0.3-0.1l0,0l-0.1-0.2l-2.1,0.4l0,0L26.3,42.9z M25.3,42.5L25.3,42.5c0.2-0.1,0.3-0.1,0.4-0.1
		c0.1,0,0.3,0.1,0.6,0.3l-0.4,0l0,0l0.1,0.2l0.3,0l0,1.6l0.2,0.1l0,0l0-1.7l0.3,0l0,0l-0.1-0.2l-0.3,0c-0.1-0.4-0.1-0.6-0.3-0.8
		c-0.1-0.2-0.2-0.3-0.4-0.3c-0.1,0-0.2,0-0.3,0l0.1,0.2l0,0c0.1,0,0.2,0,0.3,0c0.3,0,0.3,0.1,0.4,0.5l0,0c-0.3-0.2-0.4-0.3-0.6-0.3
		c-0.1,0-0.2,0.1-0.4,0.1L25.3,42.5z M24.8,43.7c-0.2,0.2-0.3,0.3-0.5,0.3c-0.2,0-0.3-0.1-0.3-0.2c0-0.2,0.2-0.4,0.5-0.4
		c0.1,0,0.2,0,0.3,0L24.8,43.7z M23.7,43l1.1,0l0,0.3c-0.1,0-0.3-0.1-0.4,0c-0.3,0-0.5,0.2-0.5,0.4c0,0.3,0.3,0.5,0.6,0.5
		c0.1,0,0.3,0,0.4-0.2l0,0l0,0.5l0.2,0.1l0,0l0-0.8c0.1-0.2,0.3-0.3,0.5-0.3c0.1,0,0.1,0.1,0.1,0.1c0,0.2-0.1,0.4-0.3,0.6l0.2,0.1
		l0,0c0.2-0.2,0.3-0.4,0.3-0.6c0-0.2-0.2-0.5-0.4-0.5c-0.1,0-0.3,0.1-0.4,0.2l0,0l0-0.6l1,0l0,0l-0.1-0.2l-2.3,0l0,0L23.7,43z
		 M21.6,42.8l0.7,0c0,0.1,0,0.2,0,0.2c0,0.1,0,0.2-0.1,0.3c-0.1,0-0.2,0-0.2,0c-0.1,0-0.2,0-0.2,0c0,0,0,0.1,0,0.1
		c0,0.1,0,0.2,0.1,0.3c0.2,0.3,0.4,0.5,0.7,0.8l0,0l0.1-0.2c-0.3-0.2-0.5-0.4-0.7-0.6c0.3-0.1,0.4-0.3,0.5-0.6c0-0.1,0-0.2,0-0.3
		l0.5,0l0,0l-0.1-0.2l-1.3-0.1l0,0L21.6,42.8z M20.3,42.2L20.3,42.2c0.2,0,0.3,0,0.4,0c0.1,0,0.3,0.2,0.5,0.5l-1.2-0.3l0,0l0,0.2
		l0.4,0.1l-0.2,0.7c-0.1,0-0.2,0-0.3,0c-0.1,0-0.2-0.1-0.2-0.1c0,0-0.1-0.1-0.1-0.1c0.1-0.1,0.1-0.1,0.2-0.2c0-0.1,0-0.2,0-0.4
		c-0.1-0.2-0.2-0.3-0.4-0.3c-0.1,0-0.3,0-0.5,0.1l0,0l0.1,0.2c0.2-0.1,0.4-0.1,0.5-0.1c0.1,0,0.2,0.1,0.2,0.2c0,0.1-0.1,0.2-0.2,0.2
		c-0.1,0-0.3,0-0.5,0l0,0l0.1,0.2c0.2,0,0.3,0,0.4,0c0.2,0,0.2,0.2,0.2,0.3c0,0.2-0.3,0.3-0.4,0.2c-0.3-0.1-0.4-0.3-0.5-0.8l-0.1,0
		l0,0c0.1,0.5,0.3,0.9,0.7,1c0.3,0.1,0.5-0.1,0.6-0.3c0-0.1,0-0.1,0-0.2l0,0c0.1,0.1,0.2,0.1,0.3,0.1c0.1,0,0.1,0,0.2,0l-0.2,0.7
		l0.2,0.1l0,0l0.4-1.6l0.5,0.1l-0.4,1.6l0.2,0.1l0,0l0.4-1.6l0.3,0.1l0,0l0-0.2l-0.3-0.1c0-0.4,0-0.6-0.1-0.8
		c-0.1-0.2-0.2-0.3-0.3-0.4c-0.1,0-0.2,0-0.3,0l0,0.3l0,0c0.1,0,0.2,0,0.3,0c0.3,0.1,0.3,0.2,0.3,0.6l0,0c-0.2-0.3-0.3-0.4-0.5-0.4
		c-0.1,0-0.2,0-0.4,0L20.3,42.2z M16.2,41.4l1.1,0.4l-0.2,0.5c-0.2-0.1-0.4-0.2-0.5-0.2c-0.1,0-0.2-0.1-0.4-0.1
		c-0.1,0-0.2,0-0.2,0.1c-0.1,0.2,0.1,0.5,0.2,0.5c0.1,0,0.1,0,0.1,0c0,0,0-0.1,0.1-0.1l0.1-0.1c0.1,0,0.2,0,0.3,0.1
		c0.1,0,0.2,0.1,0.3,0.1l-0.4,0.9l0.2,0.1l0,0l0.6-1.6l0.3,0.1l0,0l0-0.2l-1.6-0.6l0,0L16.2,41.4z M15.6,41.1l-0.3,0.6
		c-0.1,0.1-0.1,0.2-0.2,0.2c-0.1,0-0.2,0-0.3-0.1c-0.2-0.1-0.2-0.4-0.2-0.4c0,0,0,0,0.1,0c0.3,0,0.4,0,0.5-0.2c0-0.1,0.1-0.2,0-0.4
		L15.6,41.1z M14.5,40.5l0.4,0.2c0,0.1,0,0.2,0,0.3c-0.1,0.1-0.3,0.1-0.5,0.1l0,0c-0.1,0.4,0,0.8,0.3,0.9c0.1,0.1,0.3,0.1,0.4,0.1
		l-0.3,0.5l0.2,0.1l0,0l0.8-1.5l0.3,0.2l0,0l0-0.2l-1.6-0.8l0,0L14.5,40.5z M13.9,40.2l-0.4,0.5c-0.1,0.1-0.2,0.2-0.3,0.2
		c-0.1,0-0.2,0-0.3-0.1c-0.2-0.1-0.2-0.4-0.2-0.4c0,0,0,0,0.1,0c0.3,0.1,0.4,0,0.5-0.1c0-0.1,0.1-0.2,0.1-0.4L13.9,40.2z M12.6,39.5
		c0-0.3,0.1-0.5-0.2-0.6c-0.2-0.1-0.4-0.1-0.5,0.1c-0.1,0.2-0.1,0.4,0,0.6c-0.1,0-0.1,0.1-0.2,0.1c-0.1,0.1-0.1,0.2,0,0.4
		c0,0.2,0.1,0.3,0.3,0.4c0.2,0.1,0.4,0.1,0.6,0c0,0.2,0.1,0.3,0.3,0.5c0.1,0.1,0.2,0.1,0.4,0.1L13,41.6l0.1,0.2l0,0l0.9-1.4l0.3,0.2
		l0,0l0-0.2l-1.6-1l0,0l0,0.2l0.5,0.3c0,0.1,0,0.2,0,0.3c-0.1,0.1-0.3,0.1-0.5,0l0,0c0,0.1,0,0.2,0,0.3c-0.2,0.1-0.4,0-0.6-0.1
		c-0.1-0.1-0.2-0.2-0.1-0.3c0.1-0.1,0.3-0.1,0.6,0l0,0l0-0.2c-0.2-0.1-0.3-0.1-0.4-0.1c-0.1-0.1-0.2-0.2-0.1-0.4
		c0.1-0.1,0.2-0.2,0.4-0.1C12.5,39.2,12.5,39.3,12.6,39.5L12.6,39.5L12.6,39.5z M10.4,37.8c0.2,0,0.4,0.1,0.5,0.2
		c0.1,0.1,0.1,0.2,0,0.3c-0.1,0.1-0.2,0.1-0.3,0.1c-0.1-0.1-0.3-0.2-0.4-0.2l0,0l0,0.3c0.1,0,0.3,0.1,0.3,0.2c0.1,0.1,0.1,0.2,0,0.4
		c-0.1,0.1-0.4,0.1-0.5,0c-0.2-0.2-0.2-0.5-0.1-0.9l-0.1,0l0,0c-0.1,0.5-0.1,0.9,0.2,1.2c0.2,0.2,0.5,0.2,0.6,0c0,0,0.1-0.1,0.1-0.2
		l0,0c0,0.1,0.1,0.2,0.2,0.2c0,0,0.1,0.1,0.1,0.1l-0.5,0.5l0.1,0.2l0,0l1.1-1.3l0.3,0.2l0,0l0.1-0.2l-0.7-0.6l0,0l-0.1,0.2l0.3,0.2
		l-0.5,0.5c-0.1,0-0.2-0.1-0.3-0.1c-0.1-0.1-0.1-0.1-0.1-0.2c0,0,0-0.1,0-0.2c0.1,0,0.2,0,0.3-0.1c0.1-0.1,0.1-0.2,0.1-0.3
		c0-0.2-0.1-0.3-0.2-0.4c-0.1-0.1-0.3-0.1-0.5-0.2l0,0L10.4,37.8z M9.2,36.3l0.2,0.2l-1.3,1l0.1,0.2l0,0l1.4-1L9.7,37l0,0l0.1-0.2
		l-0.2-0.2c0.4-0.4,0.4-1,0.1-1.4C9.5,35,9.2,34.9,8.9,35c-0.1,0.1-0.1,0.1-0.2,0.2l0,0.2l0,0c0-0.1,0.1-0.1,0.2-0.2
		c0.1-0.1,0.4-0.1,0.6,0.2c0.3,0.3,0.2,0.7-0.1,1l-0.2-0.3l0,0L9.2,36.3z M7.9,36c-0.2,0-0.4-0.1-0.5-0.2c-0.1-0.1-0.1-0.2,0-0.3
		c0.2-0.1,0.4-0.1,0.6,0.1C8,35.6,8,35.7,8.1,35.8L7.9,36z M7.8,34.6l0.7,0.9l-0.3,0.2c-0.1-0.1-0.1-0.3-0.2-0.4
		c-0.2-0.2-0.5-0.3-0.7-0.2c-0.2,0.2-0.3,0.5-0.1,0.8c0.1,0.1,0.2,0.2,0.3,0.2l0,0l-0.4,0.3l0.1,0.2l0,0l0.6-0.5
		c0.2,0,0.4,0.1,0.5,0.2c0.1,0.1,0,0.1,0,0.2c-0.1,0.1-0.4,0.1-0.6,0.1l0,0.2l0,0c0.2,0,0.5,0,0.6-0.1c0.2-0.2,0.3-0.4,0.1-0.6
		C8.4,36.1,8.3,36,8.1,36l0,0l0.5-0.3l0.6,0.8l0,0l0.1-0.2l-1.4-1.8l0,0L7.8,34.6z M7.2,33.8L7.4,34l-1.5,0.8L6,35l0,0l1.5-0.8
		l0.2,0.3l0,0l0.1-0.2l-0.1-0.2C8,33.8,8.2,33.3,8,33c-0.1-0.2-0.3-0.3-0.5-0.2c-0.1,0.1-0.2,0.2-0.2,0.3l0,0.2l0,0
		c0-0.1,0.1-0.2,0.2-0.3c0.1-0.1,0.3,0,0.4,0.1c0.1,0.2,0,0.5-0.3,0.7l-0.2-0.3l0,0L7.2,33.8z M6.4,32.4l0.6,1l-0.4,0.3
		c-0.1-0.2-0.2-0.4-0.2-0.5c-0.1-0.1-0.1-0.2-0.2-0.3c-0.1-0.1-0.2-0.1-0.2,0c-0.1,0.1-0.2,0.4-0.2,0.5c0,0,0.1,0.1,0.1,0.1
		c0,0,0.1,0,0.1-0.1l0.1-0.1c0.1,0.1,0.1,0.1,0.2,0.2c0,0.1,0.1,0.2,0.1,0.2l-0.8,0.5l0.1,0.2l0,0l1.5-0.8l0.2,0.3l0,0l0.1-0.2
		l-0.9-1.5l0,0L6.4,32.4z M5.2,31.5c-0.2-0.1-0.4-0.2-0.5-0.3c-0.1-0.1,0-0.3,0.1-0.3c0.2-0.1,0.4,0,0.5,0.3c0,0.1,0.1,0.2,0.1,0.3
		L5.2,31.5z M5.4,30.2l0.5,1l-0.3,0.1c0-0.1-0.1-0.3-0.1-0.4c-0.1-0.3-0.4-0.4-0.6-0.3c-0.3,0.1-0.4,0.4-0.3,0.7
		c0.1,0.1,0.1,0.2,0.3,0.3l0,0l-0.5,0.2l0,0.2l0,0l0.7-0.3c0.2,0.1,0.4,0.2,0.5,0.3c0,0.1,0,0.2-0.1,0.2c-0.2,0.1-0.4,0-0.6,0
		l-0.1,0.2l0,0c0.2,0.1,0.5,0.1,0.7,0c0.2-0.1,0.4-0.4,0.3-0.6c-0.1-0.1-0.2-0.2-0.3-0.3l0,0L6,31.4l0.4,0.9l0,0l0.1-0.2l-0.9-2.1
		l0,0L5.4,30.2z M4.9,28.5l0.3,1.1l-0.3,0.1c0-0.1-0.1-0.3-0.1-0.4c-0.1-0.5-0.3-0.6-0.6-0.5c-0.3,0.1-0.5,0.3-0.8,0.8l0,0l0.3,0.1
		c0.1-0.4,0.3-0.6,0.4-0.7c0.2,0,0.3,0.1,0.5,0.5c0,0.1,0.1,0.2,0.1,0.3l-1.1,0.3l0,0.2l0,0l1.6-0.5l0.1,0.3l0,0L5.6,30l-0.5-1.7
		l0,0L4.9,28.5z"/>
	<path class="st7" d="M42.7,30.5l0.4-1l0.3,0.1c0,0,0,0,0,0.1l-0.1,0.2c-0.1,0.3,0,0.6,0.3,0.7c0.3,0.1,0.8-0.1,0.9-0.5
		c0-0.1,0.1-0.2,0-0.3c0.1-0.1,0.2-0.1,0.3,0c0.1,0,0.2,0.1,0.2,0.3l0.2-0.1l0,0c0-0.1-0.1-0.3-0.3-0.3c-0.1,0-0.3,0-0.5,0.1
		c0-0.1-0.1-0.2-0.2-0.2c-0.1,0-0.1,0-0.2,0c-0.1,0-0.1,0.1-0.1,0.1c0,0.1,0,0.2,0.1,0.3c0.1,0,0.1,0,0.2,0c0,0.1,0,0.2,0,0.3
		c-0.1,0.2-0.3,0.3-0.5,0.3c-0.2-0.1-0.3-0.3-0.2-0.7l0.1-0.3l0,0l-0.5-0.2l0.1-0.4l0,0l-0.2,0l-0.6,1.6l0,0L42.7,30.5z M43.1,31.5
		l-0.9,0.2l0,0l0.3-0.5l0.5,0.2C43,31.4,43.1,31.4,43.1,31.5L43.1,31.5z M43.1,31.6c0,0.1,0,0.2,0,0.3c-0.1,0.2-0.2,0.2-0.5,0.1
		c-0.1-0.1-0.2-0.1-0.4-0.2l0,0L43.1,31.6z M41.9,32.2L42,32c0.1,0.1,0.3,0.1,0.4,0.2c0.2,0.1,0.4,0.1,0.5,0.1
		c0.2-0.1,0.3-0.2,0.4-0.3c0.1-0.1,0.1-0.2,0-0.3l0.6,0.3l0.1-0.2l0,0l-1.6-0.7l0.1-0.3l0,0l-0.2,0l-0.7,1.5l0,0L41.9,32.2z
		 M41.4,33.1l0.3-0.6c0.1,0,0.2,0.1,0.2,0.1c0.1,0.1,0.2,0.1,0.2,0.2c0,0.1-0.1,0.1-0.1,0.2c0,0.1-0.1,0.1,0,0.2c0,0,0,0.1,0.1,0.1
		c0.1,0,0.2,0,0.3,0c0.3,0,0.7-0.1,1-0.3l0,0l-0.1-0.2c-0.3,0.2-0.6,0.3-0.8,0.4c0-0.3-0.1-0.5-0.4-0.7c-0.1-0.1-0.2-0.1-0.3-0.1
		l0.2-0.4l0,0l-0.2,0l-0.7,1.1l0,0L41.4,33.1z M41,33.7l0.1-0.2l1.5,0.8l0.2-0.1l0,0l-1.5-0.8l0.2-0.3l0,0l-0.2,0l-0.1,0.3
		c-0.1,0-0.2,0-0.2-0.1c-0.2-0.1-0.2-0.3-0.1-0.5c0.1-0.2,0.4-0.4,0.8-0.4l0,0l0-0.1c-0.5,0-0.8,0.2-1,0.5c-0.1,0.2-0.1,0.5,0.2,0.6
		c0.1,0.1,0.2,0.1,0.3,0.1l-0.2,0.3l0,0L41,33.7z M40.8,34.1l0.5,0.3c0.1,0.1,0.1,0.1,0.2,0.2c0,0.1,0,0.2-0.1,0.3
		c-0.1,0.2-0.3,0.1-0.5,0c-0.1-0.1-0.3-0.2-0.4-0.3L40.8,34.1z M40.1,35.1l0.1-0.2c0.1,0.1,0.3,0.2,0.4,0.3c0.2,0.2,0.4,0.2,0.5,0.2
		c0.2,0,0.3-0.1,0.4-0.2c0.1-0.1,0.1-0.2,0.1-0.3l0.5,0.4l0.2-0.1l0,0l-1.4-1l0.2-0.3l0,0l-0.2,0l-1,1.4l0,0L40.1,35.1z M38.5,36.9
		l0.8-0.9l0.4,0.3c-0.1,0.1-0.3,0.3-0.4,0.4c-0.1,0.1-0.2,0.2-0.2,0.3c0,0.1,0,0.2,0,0.2c0.1,0.1,0.5,0.1,0.5,0c0,0,0-0.1,0-0.1
		c0,0,0-0.1-0.1-0.1L39.5,37c0-0.1,0.1-0.2,0.2-0.3c0.1-0.1,0.1-0.1,0.2-0.2l0.7,0.6l0.2-0.1l0,0l-1.3-1.1l0.2-0.3l0,0l-0.2,0
		l-1.1,1.3l0,0L38.5,36.9z M38.1,37.3l0.2-0.2l1.2,1.2l0.2-0.1l0,0L38.5,37l0.2-0.2l0,0l-0.2-0.1L38,37.2l0,0L38.1,37.3z M37.5,38.1
		L37.5,38.1c-0.3-0.2-0.4-0.3-0.6-0.1c-0.1,0.1-0.2,0.4,0,0.5c0.1,0.1,0.3,0.2,0.6,0.1c0,0.1,0,0.1,0.1,0.2c0.1,0.1,0.2,0.1,0.4,0.1
		c0.2,0,0.4-0.1,0.5-0.2c0.1-0.1,0.2-0.2,0.2-0.3l0.3,0.4l0.2-0.1l0,0L38,37.5l0.2-0.2l0,0L38,37.1l-0.6,0.6l0,0l0.2,0.1l0.2-0.2
		l0.5,0.5c0.1,0.1,0.1,0.2,0.1,0.3c0,0.2-0.1,0.3-0.2,0.3c-0.1,0.1-0.2,0.1-0.3,0c-0.1-0.1-0.1-0.3,0.1-0.6l0,0l-0.2,0
		c-0.1,0.2-0.2,0.3-0.2,0.3c-0.1,0.1-0.3,0.1-0.4,0c-0.1-0.1-0.1-0.2,0-0.4C37.2,38,37.3,38,37.5,38.1L37.5,38.1z M35.4,38.6l0,0.3
		l0.3,0l0-0.3L35.4,38.6z M36.1,39l0.4,0.6c-0.1,0.1-0.2,0.2-0.3,0.3C36.1,39.9,36,40,35.9,40c0-0.1-0.1-0.1-0.1-0.2
		c-0.1-0.1-0.2-0.2-0.3-0.3L36.1,39z M34.9,39.8l0.4-0.3c0.1,0.1,0.1,0.2,0.2,0.3c0.1,0.1,0.1,0.2,0.1,0.2c-0.1,0-0.1,0.1-0.1,0.1
		c-0.1,0.1-0.1,0.2,0,0.2c0,0.1,0.1,0.1,0.3,0.2c0.2,0.1,0.6,0.2,1,0.2l0,0l0-0.3c-0.3,0-0.6,0-0.8,0c0-0.1,0-0.2,0-0.3
		c0.2,0,0.4-0.1,0.5-0.2c0.1,0,0.1-0.1,0.2-0.2l0.4,0.6l0.2-0.1l0,0l-1-1.4l0.3-0.2l0,0l-0.2-0.1l-1.6,1.1v0L34.9,39.8z M34.7,42.2
		L34.7,42.2c0.5,0.2,0.8,0.3,1.1,0.1c0.1-0.1,0.3-0.3,0.2-0.5c0-0.1-0.1-0.1-0.2-0.2c-0.1-0.1-0.3-0.1-0.4,0
		c-0.1,0.1-0.2,0.1-0.2,0.3l0.2,0.1l0,0c0-0.1,0.1-0.2,0.2-0.2c0.1,0,0.1,0,0.2,0c0.1,0.1,0,0.3-0.2,0.3c-0.2,0.1-0.5,0.1-0.9-0.1
		L34.7,42.2z M33.4,40.7l1-0.6l0.3,0.4c-0.2,0.1-0.4,0.2-0.5,0.2c-0.1,0.1-0.2,0.1-0.3,0.2c-0.1,0.1-0.1,0.2,0,0.2
		c0.1,0.1,0.4,0.2,0.5,0.2c0,0,0.1-0.1,0.1-0.1c0,0,0-0.1-0.1-0.1l-0.1-0.1c0.1-0.1,0.1-0.1,0.3-0.2c0.1,0,0.2-0.1,0.2-0.1l0.5,0.8
		l0.2-0.1l0,0l-0.9-1.5l0.3-0.2l0,0l-0.2-0.1l-1.5,0.8l0,0L33.4,40.7z M31.7,41.7c0.1-0.2,0.2-0.3,0.3-0.3c0.1-0.1,0.2,0,0.3,0.1
		c0,0.1,0,0.2,0,0.3c-0.1,0.1-0.2,0.2-0.4,0.3l0,0l0.2,0.1c0.1-0.1,0.2-0.2,0.3-0.2c0.2-0.1,0.3,0,0.4,0.1c0.1,0.2,0,0.4-0.2,0.4
		c-0.2,0.1-0.5,0-0.9-0.3l-0.1,0.1l0,0c0.4,0.3,0.8,0.5,1.2,0.3c0.2-0.1,0.4-0.3,0.2-0.6c0-0.1-0.1-0.1-0.1-0.2l0,0
		c0.1,0,0.2,0,0.3,0c0.1,0,0.1-0.1,0.1-0.1l0.3,0.6l0.2,0l0,0l-0.7-1.5l0.3-0.1l0,0l-0.2-0.1L32.5,41l0,0l0.2,0.1l0.3-0.1l0.3,0.6
		c-0.1,0.1-0.1,0.2-0.2,0.2c-0.1,0-0.2,0.1-0.2,0c0,0-0.1,0-0.2,0c0-0.1,0-0.2,0-0.3c-0.1-0.1-0.1-0.2-0.3-0.3
		c-0.2-0.1-0.3-0.1-0.5,0c-0.1,0.1-0.2,0.2-0.3,0.3l0,0L31.7,41.7z M28.5,42.5l1.5-0.4l0.1,0.3c-0.2,0.1-0.4,0.2-0.4,0.3
		c-0.2-0.1-0.3-0.1-0.5-0.1c-0.3,0.1-0.4,0.3-0.3,0.6c0.1,0.3,0.4,0.6,0.9,0.7l0,0l0.1-0.3c-0.4-0.1-0.7-0.1-0.7-0.4
		c0-0.2,0-0.4,0.2-0.4c0.1,0,0.2,0,0.2,0c0,0.1-0.1,0.2-0.1,0.4l0.2,0.1l0,0c0-0.4,0.1-0.5,0.4-0.6l0.3,1.1l0.2,0l0,0L30.2,42
		l0.3-0.1l0,0l-0.1-0.1l-2,0.6l0,0L28.5,42.5z M27.1,42.7c0.1,0,0.3,0.1,0.3,0.2c0,0.1,0,0.2-0.1,0.3c-0.2,0-0.4-0.1-0.5-0.3
		C26.9,42.9,27,42.8,27.1,42.7z M26.3,42.9l0.3-0.1c0,0.1,0,0.1,0,0.1c0,0.2,0.3,0.4,0.6,0.5c0,0.1-0.1,0.1-0.1,0.1
		c-0.1,0-0.2-0.1-0.3,0c-0.1,0-0.2,0.1-0.2,0.1c0,0,0,0.1,0.1,0.1c0.1,0.1,0.2,0.1,0.2,0.1c0.1,0,0.2,0,0.2-0.1
		c0.2,0.2,0.4,0.4,0.7,0.5l0,0l0.1-0.3c-0.2-0.1-0.4-0.2-0.7-0.4c0.3-0.2,0.4-0.5,0.4-0.7c0-0.1-0.1-0.3-0.3-0.4l0.5-0.1l0.3,1.6
		l0.2,0l0,0l-0.3-1.7l0.3-0.1l0,0l-0.1-0.2l-2.1,0.4l0,0L26.3,42.9z M25.3,42.5L25.3,42.5c0.2-0.1,0.3-0.1,0.4-0.1
		c0.1,0,0.3,0.1,0.6,0.3l-0.4,0l0,0l0.1,0.2l0.3,0l0,1.6l0.2,0.1l0,0l0-1.7l0.3,0l0,0l-0.1-0.2l-0.3,0c-0.1-0.4-0.1-0.6-0.3-0.8
		c-0.1-0.2-0.2-0.3-0.4-0.3c-0.1,0-0.2,0-0.3,0l0.1,0.2l0,0c0.1,0,0.2,0,0.3,0c0.3,0,0.3,0.1,0.4,0.5l0,0c-0.3-0.2-0.4-0.3-0.6-0.3
		c-0.1,0-0.2,0.1-0.4,0.1L25.3,42.5z M24.8,43.7c-0.2,0.2-0.3,0.3-0.5,0.3c-0.2,0-0.3-0.1-0.3-0.2c0-0.2,0.2-0.4,0.5-0.4
		c0.1,0,0.2,0,0.3,0L24.8,43.7z M23.7,43l1.1,0l0,0.3c-0.1,0-0.3-0.1-0.4,0c-0.3,0-0.5,0.2-0.5,0.4c0,0.3,0.3,0.5,0.6,0.5
		c0.1,0,0.3,0,0.4-0.2l0,0l0,0.5l0.2,0.1l0,0l0-0.8c0.1-0.2,0.3-0.3,0.5-0.3c0.1,0,0.1,0.1,0.1,0.1c0,0.2-0.1,0.4-0.3,0.6l0.2,0.1
		l0,0c0.2-0.2,0.3-0.4,0.3-0.6c0-0.2-0.2-0.5-0.4-0.5c-0.1,0-0.3,0.1-0.4,0.2l0,0l0-0.6l1,0l0,0l-0.1-0.2l-2.3,0l0,0L23.7,43z
		 M21.6,42.8l0.7,0c0,0.1,0,0.2,0,0.2c0,0.1,0,0.2-0.1,0.3c-0.1,0-0.2,0-0.2,0c-0.1,0-0.2,0-0.2,0c0,0,0,0.1,0,0.1
		c0,0.1,0,0.2,0.1,0.3c0.2,0.3,0.4,0.5,0.7,0.8l0,0l0.1-0.2c-0.3-0.2-0.5-0.4-0.7-0.6c0.3-0.1,0.4-0.3,0.5-0.6c0-0.1,0-0.2,0-0.3
		l0.5,0l0,0l-0.1-0.2l-1.3-0.1l0,0L21.6,42.8z M20.3,42.2L20.3,42.2c0.2,0,0.3,0,0.4,0c0.1,0,0.3,0.2,0.5,0.5l-1.2-0.3l0,0l0,0.2
		l0.4,0.1l-0.2,0.7c-0.1,0-0.2,0-0.3,0c-0.1,0-0.2-0.1-0.2-0.1c0,0-0.1-0.1-0.1-0.1c0.1-0.1,0.1-0.1,0.2-0.2c0-0.1,0-0.2,0-0.4
		c-0.1-0.2-0.2-0.3-0.4-0.3c-0.1,0-0.3,0-0.5,0.1l0,0l0.1,0.2c0.2-0.1,0.4-0.1,0.5-0.1c0.1,0,0.2,0.1,0.2,0.2c0,0.1-0.1,0.2-0.2,0.2
		c-0.1,0-0.3,0-0.5,0l0,0l0.1,0.2c0.2,0,0.3,0,0.4,0c0.2,0,0.2,0.2,0.2,0.3c0,0.2-0.3,0.3-0.4,0.2c-0.3-0.1-0.4-0.3-0.5-0.8l-0.1,0
		l0,0c0.1,0.5,0.3,0.9,0.7,1c0.3,0.1,0.5-0.1,0.6-0.3c0-0.1,0-0.1,0-0.2l0,0c0.1,0.1,0.2,0.1,0.3,0.1c0.1,0,0.1,0,0.2,0l-0.2,0.7
		l0.2,0.1l0,0l0.4-1.6l0.5,0.1l-0.4,1.6l0.2,0.1l0,0l0.4-1.6l0.3,0.1l0,0l0-0.2l-0.3-0.1c0-0.4,0-0.6-0.1-0.8
		c-0.1-0.2-0.2-0.3-0.3-0.4c-0.1,0-0.2,0-0.3,0l0,0.3l0,0c0.1,0,0.2,0,0.3,0c0.3,0.1,0.3,0.2,0.3,0.6l0,0c-0.2-0.3-0.3-0.4-0.5-0.4
		c-0.1,0-0.2,0-0.4,0L20.3,42.2z M16.2,41.4l1.1,0.4l-0.2,0.5c-0.2-0.1-0.4-0.2-0.5-0.2c-0.1,0-0.2-0.1-0.4-0.1
		c-0.1,0-0.2,0-0.2,0.1c-0.1,0.2,0.1,0.5,0.2,0.5c0.1,0,0.1,0,0.1,0c0,0,0-0.1,0.1-0.1l0.1-0.1c0.1,0,0.2,0,0.3,0.1
		c0.1,0,0.2,0.1,0.3,0.1l-0.4,0.9l0.2,0.1l0,0l0.6-1.6l0.3,0.1l0,0l0-0.2l-1.6-0.6l0,0L16.2,41.4z M15.6,41.1l-0.3,0.6
		c-0.1,0.1-0.1,0.2-0.2,0.2c-0.1,0-0.2,0-0.3-0.1c-0.2-0.1-0.2-0.4-0.2-0.4c0,0,0,0,0.1,0c0.3,0,0.4,0,0.5-0.2c0-0.1,0.1-0.2,0-0.4
		L15.6,41.1z M14.5,40.5l0.4,0.2c0,0.1,0,0.2,0,0.3c-0.1,0.1-0.3,0.1-0.5,0.1l0,0c-0.1,0.4,0,0.8,0.3,0.9c0.1,0.1,0.3,0.1,0.4,0.1
		l-0.3,0.5l0.2,0.1l0,0l0.8-1.5l0.3,0.2l0,0l0-0.2l-1.6-0.8l0,0L14.5,40.5z M13.9,40.2l-0.4,0.5c-0.1,0.1-0.2,0.2-0.3,0.2
		c-0.1,0-0.2,0-0.3-0.1c-0.2-0.1-0.2-0.4-0.2-0.4c0,0,0,0,0.1,0c0.3,0.1,0.4,0,0.5-0.1c0-0.1,0.1-0.2,0.1-0.4L13.9,40.2z M12.6,39.5
		c0-0.3,0.1-0.5-0.2-0.6c-0.2-0.1-0.4-0.1-0.5,0.1c-0.1,0.2-0.1,0.4,0,0.6c-0.1,0-0.1,0.1-0.2,0.1c-0.1,0.1-0.1,0.2,0,0.4
		c0,0.2,0.1,0.3,0.3,0.4c0.2,0.1,0.4,0.1,0.6,0c0,0.2,0.1,0.3,0.3,0.5c0.1,0.1,0.2,0.1,0.4,0.1L13,41.6l0.1,0.2l0,0l0.9-1.4l0.3,0.2
		l0,0l0-0.2l-1.6-1l0,0l0,0.2l0.5,0.3c0,0.1,0,0.2,0,0.3c-0.1,0.1-0.3,0.1-0.5,0l0,0c0,0.1,0,0.2,0,0.3c-0.2,0.1-0.4,0-0.6-0.1
		c-0.1-0.1-0.2-0.2-0.1-0.3c0.1-0.1,0.3-0.1,0.6,0l0,0l0-0.2c-0.2-0.1-0.3-0.1-0.4-0.1c-0.1-0.1-0.2-0.2-0.1-0.4
		c0.1-0.1,0.2-0.2,0.4-0.1C12.5,39.2,12.5,39.3,12.6,39.5L12.6,39.5L12.6,39.5z M10.4,37.8c0.2,0,0.4,0.1,0.5,0.2
		c0.1,0.1,0.1,0.2,0,0.3c-0.1,0.1-0.2,0.1-0.3,0.1c-0.1-0.1-0.3-0.2-0.4-0.2l0,0l0,0.3c0.1,0,0.3,0.1,0.3,0.2c0.1,0.1,0.1,0.2,0,0.4
		c-0.1,0.1-0.4,0.1-0.5,0c-0.2-0.2-0.2-0.5-0.1-0.9l-0.1,0l0,0c-0.1,0.5-0.1,0.9,0.2,1.2c0.2,0.2,0.5,0.2,0.6,0c0,0,0.1-0.1,0.1-0.2
		l0,0c0,0.1,0.1,0.2,0.2,0.2c0,0,0.1,0.1,0.1,0.1l-0.5,0.5l0.1,0.2l0,0l1.1-1.3l0.3,0.2l0,0l0.1-0.2l-0.7-0.6l0,0l-0.1,0.2l0.3,0.2
		l-0.5,0.5c-0.1,0-0.2-0.1-0.3-0.1c-0.1-0.1-0.1-0.1-0.1-0.2c0,0,0-0.1,0-0.2c0.1,0,0.2,0,0.3-0.1c0.1-0.1,0.1-0.2,0.1-0.3
		c0-0.2-0.1-0.3-0.2-0.4c-0.1-0.1-0.3-0.1-0.5-0.2l0,0L10.4,37.8z M9.2,36.3l0.2,0.2l-1.3,1l0.1,0.2l0,0l1.4-1L9.7,37l0,0l0.1-0.2
		l-0.2-0.2c0.4-0.4,0.4-1,0.1-1.4C9.5,35,9.2,34.9,8.9,35c-0.1,0.1-0.1,0.1-0.2,0.2l0,0.2l0,0c0-0.1,0.1-0.1,0.2-0.2
		c0.1-0.1,0.4-0.1,0.6,0.2c0.3,0.3,0.2,0.7-0.1,1l-0.2-0.3l0,0L9.2,36.3z M7.9,36c-0.2,0-0.4-0.1-0.5-0.2c-0.1-0.1-0.1-0.2,0-0.3
		c0.2-0.1,0.4-0.1,0.6,0.1C8,35.6,8,35.7,8.1,35.8L7.9,36z M7.8,34.6l0.7,0.9l-0.3,0.2c-0.1-0.1-0.1-0.3-0.2-0.4
		c-0.2-0.2-0.5-0.3-0.7-0.2c-0.2,0.2-0.3,0.5-0.1,0.8c0.1,0.1,0.2,0.2,0.3,0.2l0,0l-0.4,0.3l0.1,0.2l0,0l0.6-0.5
		c0.2,0,0.4,0.1,0.5,0.2c0.1,0.1,0,0.1,0,0.2c-0.1,0.1-0.4,0.1-0.6,0.1l0,0.2l0,0c0.2,0,0.5,0,0.6-0.1c0.2-0.2,0.3-0.4,0.1-0.6
		C8.4,36.1,8.3,36,8.1,36l0,0l0.5-0.3l0.6,0.8l0,0l0.1-0.2l-1.4-1.8l0,0L7.8,34.6z M7.2,33.8L7.4,34l-1.5,0.8L6,35l0,0l1.5-0.8
		l0.2,0.3l0,0l0.1-0.2l-0.1-0.2C8,33.8,8.2,33.3,8,33c-0.1-0.2-0.3-0.3-0.5-0.2c-0.1,0.1-0.2,0.2-0.2,0.3l0,0.2l0,0
		c0-0.1,0.1-0.2,0.2-0.3c0.1-0.1,0.3,0,0.4,0.1c0.1,0.2,0,0.5-0.3,0.7l-0.2-0.3l0,0L7.2,33.8z M6.4,32.4l0.6,1l-0.4,0.3
		c-0.1-0.2-0.2-0.4-0.2-0.5c-0.1-0.1-0.1-0.2-0.2-0.3c-0.1-0.1-0.2-0.1-0.2,0c-0.1,0.1-0.2,0.4-0.2,0.5c0,0,0.1,0.1,0.1,0.1
		c0,0,0.1,0,0.1-0.1l0.1-0.1c0.1,0.1,0.1,0.1,0.2,0.2c0,0.1,0.1,0.2,0.1,0.2l-0.8,0.5l0.1,0.2l0,0l1.5-0.8l0.2,0.3l0,0l0.1-0.2
		l-0.9-1.5l0,0L6.4,32.4z M5.2,31.5c-0.2-0.1-0.4-0.2-0.5-0.3c-0.1-0.1,0-0.3,0.1-0.3c0.2-0.1,0.4,0,0.5,0.3c0,0.1,0.1,0.2,0.1,0.3
		L5.2,31.5z M5.4,30.2l0.5,1l-0.3,0.1c0-0.1-0.1-0.3-0.1-0.4c-0.1-0.3-0.4-0.4-0.6-0.3c-0.3,0.1-0.4,0.4-0.3,0.7
		c0.1,0.1,0.1,0.2,0.3,0.3l0,0l-0.5,0.2l0,0.2l0,0l0.7-0.3c0.2,0.1,0.4,0.2,0.5,0.3c0,0.1,0,0.2-0.1,0.2c-0.2,0.1-0.4,0-0.6,0
		l-0.1,0.2l0,0c0.2,0.1,0.5,0.1,0.7,0c0.2-0.1,0.4-0.4,0.3-0.6c-0.1-0.1-0.2-0.2-0.3-0.3l0,0L6,31.4l0.4,0.9l0,0l0.1-0.2l-0.9-2.1
		l0,0L5.4,30.2z M4.9,28.5l0.3,1.1l-0.3,0.1c0-0.1-0.1-0.3-0.1-0.4c-0.1-0.5-0.3-0.6-0.6-0.5c-0.3,0.1-0.5,0.3-0.8,0.8l0,0l0.3,0.1
		c0.1-0.4,0.3-0.6,0.4-0.7c0.2,0,0.3,0.1,0.5,0.5c0,0.1,0.1,0.2,0.1,0.3l-1.1,0.3l0,0.2l0,0l1.6-0.5l0.1,0.3l0,0L5.6,30l-0.5-1.7
		l0,0L4.9,28.5z"/>
	<rect x="0.2" y="0.2" class="st8" width="47.4" height="46.4"/>
</g>
</svg>
